<svg width="581" height="532" viewBox="0 0 581 532" fill="none" xmlns="http://www.w3.org/2000/svg">
<path d="M581 241.5C581 279.649 573.486 317.424 558.887 352.67C544.288 387.915 522.89 419.939 495.915 446.915C468.939 473.89 436.915 495.288 401.67 509.887C366.424 524.486 328.649 532 290.5 532C252.351 532 214.576 524.486 179.33 509.887C144.085 495.288 112.061 473.89 85.0855 446.915C58.11 419.939 36.712 387.915 22.113 352.67C7.514 317.424 -3.33509e-06 279.649 0 241.5L581 241.5Z" fill="#34696D"/>
<path d="M93.511 242H0L5.66733 0H127.515L140.739 81.4H143.572L156.796 0H277.699L283.367 242H189.856V116.286H187.022L167.186 242H116.18L96.3447 113.143H93.511V242Z" fill="#34696D"/>
<path d="M391.144 242H297.633L303.301 0H425.148L438.372 81.4H441.206L454.43 0H575.333L581 242H487.489V116.286H484.655L464.82 242H413.814L393.978 113.143H391.144V242Z" fill="#34696D"/>
<path d="M256 357.5C256 390.913 228.913 418 195.5 418C162.087 418 135 390.913 135 357.5C135 324.087 162.087 297 195.5 297C228.913 297 256 324.087 256 357.5Z" fill="#D6FCFF"/>
<path d="M236 369C236 384.464 223.464 397 208 397C192.536 397 180 384.464 180 369C180 353.536 192.536 341 208 341C223.464 341 236 353.536 236 369Z" fill="#33696D"/>
<path d="M227 357C227 360.314 224.314 363 221 363C217.686 363 215 360.314 215 357C215 353.686 217.686 351 221 351C224.314 351 227 353.686 227 357Z" fill="white"/>
<path d="M325 357.5C325 390.913 352.087 418 385.5 418C418.913 418 446 390.913 446 357.5C446 324.087 418.913 297 385.5 297C352.087 297 325 324.087 325 357.5Z" fill="#D6FCFF"/>
<path d="M345 369C345 384.464 357.536 397 373 397C388.464 397 401 384.464 401 369C401 353.536 388.464 341 373 341C357.536 341 345 353.536 345 369Z" fill="#33696D"/>
<path d="M354 357C354 360.314 356.686 363 360 363C363.314 363 366 360.314 366 357C366 353.686 363.314 351 360 351C356.686 351 354 353.686 354 357Z" fill="white"/>
</svg>
